<?xml version="1.0" encoding="UTF-8" standalone="no"?>
<svg
   width="11.52"
   height="8.4482403"
   viewBox="-20 -8 24.000001 17.600501"
   fill="none"
   version="1.1"
   id="svg6"
   sodipodi:docname="eye.svg"
   inkscape:version="1.2.1 (9c6d41e410, 2022-07-14)"
   xmlns:inkscape="http://www.inkscape.org/namespaces/inkscape"
   xmlns:sodipodi="http://sodipodi.sourceforge.net/DTD/sodipodi-0.dtd"
   xmlns="http://www.w3.org/2000/svg"
   xmlns:svg="http://www.w3.org/2000/svg">
  <defs
     id="defs10" />
  <sodipodi:namedview
     id="namedview8"
     pagecolor="#ffffff"
     bordercolor="#000000"
     borderopacity="0.25"
     inkscape:showpageshadow="2"
     inkscape:pageopacity="0.0"
     inkscape:pagecheckerboard="0"
     inkscape:deskcolor="#d1d1d1"
     showgrid="false"
     inkscape:zoom="23.216673"
     inkscape:cx="22.785349"
     inkscape:cy="4.2211044"
     inkscape:window-width="1920"
     inkscape:window-height="986"
     inkscape:window-x="-11"
     inkscape:window-y="-11"
     inkscape:window-maximized="1"
     inkscape:current-layer="svg6" />
  <path
     d="M 3.9523,0.5282 C 3.0114,-1.9057 1.3779,-4.01059 -0.7464,-5.52626 -2.8706,-7.04193 -5.3923,-7.90194 -8,-8 c -2.60766,0.09806 -5.12944,0.95807 -7.25364,2.47374 -2.12421,1.51567 -3.757744,3.62056 -4.698699,6.05446 -0.06355,0.1758 -0.06355,0.3683 0,0.5441 0.940955,2.4339 2.574489,4.5388 4.698699,6.0545 C -13.12944,8.6424 -10.60766,9.5024 -8,9.6005 -5.3923,9.5024 -2.8706,8.6424 -0.7464,7.1268 1.3779,5.6111 3.0114,3.5062 3.9523,1.0723 4.0159,0.8965 4.0159,0.704 3.9523,0.5282 Z M -8,8.0005 c -4.24012,0 -8.72025,-3.1441 -10.34429,-7.2002 1.62404,-4.05616 6.10417,-7.20025 10.34429,-7.20025 4.2401,0 8.7202,3.14409 10.3443,7.20025 C 0.7202,4.8564 -3.7599,8.0005 -8,8.0005 Z"
     fill="#2362a2"
     id="path2" />
  <path
     d="m -8.1999,-4 c -0.9493,0 -1.8774,0.28152 -2.66677,0.80897 -0.78938,0.52745 -1.40463,1.27712 -1.76794,2.15423 -0.36331,0.8771 -0.45837,1.8423 -0.27315,2.7734 0.18521,0.9311 0.64238,1.7864 1.31369,2.4577 0.67131,0.6714 1.52661,1.1285 2.45777,1.3137 0.9311,0.1853 1.8963,0.0902 2.7734,-0.2731 0.8771,-0.3633 1.6268,-0.9786 2.1542,-1.7679 0.5275,-0.7894 0.809,-1.7175 0.809,-2.6669 0,-1.273 -0.5057,-2.49397 -1.4059,-3.39417 C -5.7059,-3.49427 -6.9268,-4 -8.1999,-4 Z m 0,8.0002 c -0.6329,0 -1.2516,-0.1877 -1.7778,-0.5393 -0.52629,-0.3516 -0.93645,-0.8514 -1.17866,-1.4361 -0.24221,-0.5848 -0.30558,-1.2282 -0.1821,-1.849 0.12347,-0.6207 0.42825,-1.19093 0.87579,-1.63847 0.44754,-0.44754 1.01777,-0.75232 1.63847,-0.8758 0.6208,-0.12347 1.2642,-0.0601 1.849,0.18211 0.5847,0.24221 1.0845,0.65237 1.4361,1.17866 0.3516,0.5262 0.5393,1.1449 0.5393,1.7778 0,0.8488 -0.3371,1.6627 -0.9373,2.2628 -0.6001,0.6002 -1.414,0.9373 -2.2628,0.9373 z"
     fill="#2362a2"
     id="path4" />
</svg>
