<svg xmlns="http://www.w3.org/2000/svg" viewBox="50 80 380 100" height="160" width="400" xml:space="preserve"><defs><clipPath id="a" clipPathUnits="userSpaceOnUse"><path d="M0 199.792h358.753V0H0Z"/></clipPath></defs><g clip-path="url(#a)" transform="matrix(1.33333 0 0 -1.33333 0 266.39)"><path style="fill:#fab413;fill-opacity:1;fill-rule:nonzero;stroke:none" d="M0 0c-.411-.137-1.371-.137-2.33 1.234-.96 1.37.548 1.644.548 2.604 0 .959-2.193 2.741-3.015 3.015-.823.274-.275 1.097-.686 1.371-.411.274-1.233.411-7.264.411-6.031 0-7.265-3.564-7.95-3.564-1.919 0-3.564 1.919-3.564 1.919-.274-1.919 2.33-2.878 1.508-3.152-1.234-.274-1.919.411-3.838.411-4.934 0-5.346-3.564-5.346-3.564 2.879 2.879 11.925 2.605 11.925 1.097 0-1.371-1.507-.686-1.507-1.097 0-.411 1.918-3.152 1.918-6.716 0-5.483-5.208-6.99-6.853-6.99-1.645 0-2.193 1.782-3.564 3.015-1.37 1.371-3.152.137-3.152.137s.822.137.822-.411-.685-.548-.685-1.371c0-1.644 2.467-1.233 2.878-1.233.412 0 1.371-.274 1.371-1.234 0-.959-7.265 0-6.168-.548 1.097-.548.685-1.371.685-2.193 0-.823.686-1.508 1.508-1.508s1.645.548 2.467 1.371c.823.822 1.371.411 1.645.137.274-.274.274-.96-.137-1.234-.548-.137-3.153-2.056-2.604-2.056.548 0 1.096 0 1.096-.274 0-.959.96-1.371 1.508-1.371s2.056.412 2.056 1.919c0 2.056.822 3.29 1.919 3.29 1.096 0 1.096-1.508 1.096-2.33 0-.823.549-1.371 1.508-1.371.96 0 1.097.96 1.097 1.371 0 .411 1.37.274 1.645.274.274 0-.686.822-1.919 1.645-1.234.822-.96 1.233-.412 1.37.549.137 9.321 2.468 8.636 2.742-.549.274-.823.959-.412 1.644.96 1.645 6.031-1.781 6.031-1.781-1.645 2.878-4.386 4.249-5.619 4.249-1.234 0-1.234.548-1.234.548-1.234 6.99.548 8.635 2.878 8.909C-9.184.822-6.99 0-4.112-.274-1.234-.96.411 0 0 0" transform="translate(85.246 88.028)"/><path style="fill:#fab413;fill-opacity:1;fill-rule:nonzero;stroke:none" d="M0 0c.137.822 1.234 1.919 1.645 3.152.548 1.371.274 3.564-.823 4.387-1.096.685-2.604 2.741-2.604 2.741 0-.96.96-3.016.137-3.152-1.782-.412-3.427 3.426-3.427 3.426s-.274-2.33 1.097-3.564c1.508-1.37 3.153-3.426 1.919-4.249-1.097-.822-2.741 1.782-2.741 1.782C-5.209 1.645-2.193.548-2.193.548c.274-2.33-5.483-7.264-5.483-7.264l1.919-1.645C-2.604-5.208-.274-1.371 0 0" transform="translate(119.239 126.817)"/><path style="fill:#fab413;fill-opacity:1;fill-rule:nonzero;stroke:none" d="M0 0c.411 4.112-.411 5.346-.411 5.346-.137.274-.274.548-.137.822a.753.753 0 0 0 .685.411h.274c1.645 0 2.193.137 2.467.274-.137.549-2.056 1.782-4.112 2.467-.411.138-.548.549-.411.96.137.411.549.548.96.411 1.233-.411 5.071-1.919 5.071-3.838 0-.411-.137-.685-.411-.959-.548-.548-1.508-.685-2.604-.685.274-.96.411-2.468.274-5.209 0-.411-.411-.685-.685-.685C.274-.822-.137-.411 0 0m-4.66-18.641c-.137 0-.274-.137-.274-.137a.755.755 0 0 0-.686.411c-.137.411 0 .823.274.96 2.879 1.507 3.016 4.249 3.016 4.386 0 .411.274.685.685.685.411 0 .686-.274.686-.685 0 0 0-3.701-3.701-5.62m-6.031 0c-.137 0-.274-.137-.274-.137a.755.755 0 0 0-.686.411c-.137.411 0 .823.275.96 3.426 1.782 3.563 4.112 3.563 4.112 0 .411.411.685.823.685.411 0 .685-.411.685-.822 0-.138-.274-3.153-4.386-5.209m.411 14.94c.137.411.685.411.96.274 0 0 1.37-.685 1.781-2.467.549-1.782 0-3.975-1.37-6.442a.754.754 0 0 0-.686-.411c-.137 0-.274 0-.411.137-.411.137-.411.685-.274.959 1.234 2.056 1.645 3.838 1.234 5.209-.274 1.096-1.097 1.645-1.097 1.645-.274.274-.411.822-.137 1.096M-4.934.822c.274.275.685.412.959.275C-3.838.96-.548-.959-1.919-7.127c-.137-.275-.411-.549-.685-.549h-.137c-.411.137-.686.412-.549.823C-2.193-1.782-4.523-.274-4.66-.137c-.411.137-.548.685-.274.959m-.137 13.707c-.96 0-1.234.411-1.508.822 0 0 2.193.275 2.193.686 0 .274-.685.137-.685.137H-6.99s-.412.411-.412.959c0 0 0 .411.686.411h3.289s.686 0 .686-.548-.686-.411-.686-.411 0-2.056-1.644-2.056m-7.95-20.012c-.137 0-2.193-1.37-2.605-5.345 0-.411-.411-.686-.685-.686h-.137c-.411 0-.685.412-.685.823.411 4.66 3.152 6.305 3.289 6.442.412.137.823.137.96-.274.274-.274.137-.685-.137-.96m47.699-7.127c-1.919.548-1.782-.822-2.33-.685-1.508.822-.274 5.893-.274 5.893-.275.138-.823-.685-.96-1.37-.137-.823-.274-1.371-.822-1.234-1.371.548-.686 6.442-.686 6.442-.548-.411-.959-1.507-.959-2.604 0-1.096-.548-1.371-.548-1.371-.549.549-2.193 2.193-5.894 5.072-7.95 6.99-6.579 8.772-6.579 8.772 2.33 1.097 3.152 5.071 2.741 4.249-.411-.822-2.33-2.741-3.153-1.645-.822 1.097 1.371 2.33 2.605 4.112 1.37 1.782 1.37 3.838 1.096 3.29-.137-.548-2.467-3.427-3.701-3.427-1.37 0 .137 3.29-.137 3.153s-3.838-3.153-3.838-6.168c0-3.016 2.331-3.701 2.331-3.701.548-4.797 4.523-7.264 6.853-10.143 2.33-2.878 9.732-6.716 9.732-13.021 0-6.305-6.031-7.676-6.031-7.676-1.234 3.427 1.096 5.346 1.096 5.346-1.507.548-2.604-.549-2.741-.823-.137-.274-.411-.685-.96 0-1.781 2.879-5.345 1.919-5.345 1.919 7.127-3.289 5.483-6.716 5.483-6.716-3.153 0-8.224 2.741-8.224 8.361 0 5.62 7.127 10.28 7.127 10.28l-1.645 1.782s-7.95-4.523-7.95-12.062c0-10.417 10.417-10.417 10.417-10.691 0-1.097-1.644-3.427-4.934-3.427s-6.853 2.604-7.813 3.153c-.959.548-3.426 1.507-4.249 2.33-.822.822-1.919 3.015-3.152 5.483C0-17.407.685-15.9 1.097-16.585c.411-.685 2.741-2.467 2.33-1.645-2.056 4.112-.549 9.321-.274 8.772.822-1.644 3.426-2.741 2.741-1.918-2.193 3.563-.137 7.538 0 7.812.274.274.685-.548 1.371-1.37.685-.823 1.507-.96 1.096-.549-1.096 1.919-.959 8.361-.548 8.087C9.321 1.097 11.239.822 11.239.822 8.635 3.564 8.087 6.99 8.087 9.869c0 2.878-2.741 6.168-2.741 6.442s.548.822.548 1.782c0 .274-.137 1.645-1.919 1.645S1.782 18.23 1.782 18.23s-1.508.822-5.62.822c-4.249 0-6.442-.822-6.442-1.508 0-.685-1.371-.548-1.371-.548-1.644 0-1.644-2.193-.822-2.193s.548 1.097 1.234 1.097c.137 0 .548 0 .548-.549 0-1.507-1.919-.959-2.056-1.507-.411-1.919 1.508-3.153 1.508-3.153s.959 2.741 3.289 2.741 2.742-2.193 2.742-2.193-3.153-1.233-7.539-1.233c-7.95 0-4.523 6.99-4.523 6.99-4.386-2.604-3.427-8.635 2.741-8.635s9.458 2.33 9.869 1.645c.411-1.097-1.371-3.153-3.153-3.153s-2.878 1.234-2.878 1.234c-.685-1.508.548-3.701 2.741-3.701s4.386 2.33 4.386 2.33c.823-.822-1.233-4.386-6.442-4.934-5.071-.548-7.675 1.782-7.675 1.782-.275-.274-.412-1.097 0-1.645.411-.548-.138-.548-.138-.548l-7.538 7.812c-1.508 2.605.548 3.427 1.37 4.661.823 1.233.138 2.741.138 2.741 0-.548-.686-1.234-1.097-.822-.411.411-.96.411-1.371.274-.274-.137-1.096-.274-.822-2.193.274-1.782-.137-1.919-.548-1.919-.412 0-.686.274-.686 1.37 0 1.508-.411 4.661-.685 3.564-.411-.685-2.193.137-2.467-.137-.549-.822-.823-2.193.548-3.29 1.371-1.096 1.234-1.918.822-2.193-.411-.274-.685 0-1.644 1.097-.96 1.234-2.605 2.33-2.468 2.056s.137-1.097-.137-1.371-1.37-.137-1.37-1.507c0-1.371 1.782-2.331 3.152-2.194 1.371.138 2.193-.822 2.33-1.644.137-.823-.685-1.782-1.37-1.508-.549.274-2.193.411-2.193-1.371 0-1.781 1.919-1.644 1.919-2.056 0-.411.274-1.37.411-.959.685 1.645 1.782 3.701 2.33 3.152.548-.548 2.604-3.426 3.564-4.112.959-.685.959-1.37.548-1.37-2.33 0-3.701-1.919-3.29-1.919.274.137 1.508.548 3.427.548s2.604-1.371 2.878-1.096c.96 1.644 3.29 3.426 4.935 3.426 1.645 0 1.782-.548 1.782-.822 0-.274-.275-.685-.96-.685-4.112 0-8.498-7.813-6.579-6.306 1.919 1.508 3.427 1.371 3.838.549.411-.823-1.097-1.234-1.097-1.234s-8.498-3.015-10.006-3.701c-1.644-.959-2.193-.822-2.193-.822-2.33.548-1.37 2.878-1.782 3.838-.685 1.645-2.33 2.878-2.056 2.33.275-.548.138-1.371-.137-1.371-.274 0-1.233-.137-1.233-1.096 0-.96.137-1.508 1.233-2.056.96-.549.549-1.234.412-1.371-.137-.137-.823-.548-1.371.137s-3.564 3.29-3.29 2.604c.138-.685-.137-1.096-.137-1.096s-1.37-.274-1.37-1.371c0-2.056 2.193-2.056 3.152-2.193.96 0 1.782.274 1.782-.411 0-1.645-3.564-.959-4.249-.959-.685 0-.96-.275-.822-.275.274 0 .685-.411.685-.822s-.274-.685-.274-1.097c0-.411.411-1.644 2.056-1.644 1.782 0 2.33 2.33 3.563 2.33 1.097 0 1.782-.686 1.782-1.782 0-1.097-1.096-.274-1.096-2.193s2.604-.686 2.604-.96c0-.274.274-1.37.411-.959.137.685.137 1.508 0 3.152-.137 1.645-.137 2.194.686 2.331 5.071 1.233 7.812 1.644 7.538 1.096-.822-2.056 0-3.975 0-3.975.412 2.467 1.234 3.427 1.919 4.249.96 1.234 2.742.549 2.467 1.097-.274.548-.137 2.056 1.234 2.056 1.508 0 .274-4.798.822-4.523.549.274 1.782 1.37 2.605 2.604.822 1.233 1.507 3.015 2.604 2.056 1.096-.96-2.741-4.386-2.33-4.935.411-.548 2.741-2.878 5.071-4.66 2.467-1.645 7.95-4.797 7.95-7.539 0-2.741-.959-3.152-.959-6.304 0-7.128 2.193-6.306 2.193-7.95 0-1.645-1.508-4.112-1.508-4.112 1.919.822 3.015 2.878 3.29 2.604.274-.274 0-1.234 0-2.33.137-2.879 1.233-4.935 1.233-4.935-.137 5.757.96 7.128 1.645 6.854s.274-1.097.548-1.371c1.371-.548 1.508-.411 1.508-5.208 0-4.798-1.234-7.265-2.878-7.265-1.645 0-3.29 3.015-4.387 3.427-1.096.411-2.193.137-2.193.137s.549-.274.549-.686c0-.548-.686-.685-.686-1.37 0-1.234 1.645-1.371 2.193-1.234.549.137 1.645.274 1.782-.959.137-1.234-5.482-.549-5.482-.549.411-.548 1.233-.548.959-.959-.685-1.234-.137-2.878 1.097-2.741 1.096.137 2.741 1.37 3.015 1.644.274.275.96.549 1.371-.411.411-.959-3.564-3.289-3.564-3.289.822-.412 1.371.137 1.371-.274 0-.823.411-1.782 1.782-1.782 1.37 0 1.781 1.644 2.056 3.015.274 1.371 1.37 1.782 1.644 1.782.274.137 1.097.137 1.097-.685 0-.823.411-2.33 1.919-2.33 1.507 0 1.507 1.507 1.645 1.781.137.275 1.096.137 1.096.137-.685.549-2.193 1.371-2.467 1.371-.274.137-1.371.274-.548.96 3.289 3.563 5.756 13.021 5.345 13.021-1.645 0-1.782 1.782-.548 1.782 4.249-.137 5.346 1.919 5.346 1.919s-1.782-.549-3.701-.137c-7.95 2.193-7.813 11.513-7.265 12.473.548.959 1.234 3.015 1.097 3.974-.274 1.097.274.96.274.96 9.457-5.072 13.569-16.859 13.569-16.859.275 7.127-5.893 13.432-5.893 13.432 7.401-.685 8.224 5.483 8.224 5.483 6.442.959 8.909 7.676 8.635 10.417-.137 2.741 2.193 3.975 2.193 3.975" transform="translate(88.81 120.787)"/><path style="fill:#fab413;fill-opacity:1;fill-rule:nonzero;stroke:none" d="M0 0c.548 0 .96-.411.96-.959a.938.938 0 0 0-.96-.96.938.938 0 0 0-.96.96C-.96-.411-.548 0 0 0m-7.676 0c.549 0 .96-.411.96-.959 0-.412-.274-.686-.549-.823l.96-3.701H6.168l1.096 3.838c-.274.137-.411.411-.411.823 0 .548.411.959.96.959l.411 1.508S3.975.822 3.975-.959c0-.96 1.233-1.097 1.233-1.097s.686-1.645-.959-1.645H2.741S1.371-3.564.96-2.193c0 0 1.781.137 1.781 1.508 0 1.233-2.878 3.152-2.878 3.152S-3.016.685-3.016-.959c0-.823 1.645-1.097 1.645-1.097s.275-1.782-1.096-1.782h-1.645s-1.508 0-1.508 1.508c0 0 1.371.137 1.371 1.371 0 1.233-2.878 2.467-3.975 2.604z" transform="translate(85.11 146.555)"/><path style="fill:#2d5faf;fill-opacity:1;fill-rule:nonzero;stroke:none" d="M168.461 109.639h-2.819v33.367h2.819z"/><path style="fill:#2d5faf;fill-opacity:1;fill-rule:nonzero;stroke:none" d="M0 0c0-3.163.634-5.657 1.902-7.482 1.268-1.827 3.056-2.74 5.363-2.74 3.377 0 5.775 1.491 7.195 4.469V5.89c-1.42 3.223-3.804 4.835-7.15 4.835-2.307 0-4.102-.906-5.385-2.716C.642 6.199 0 3.529 0 0m-2.773.48c0 3.851.859 6.918 2.578 9.203 1.719 2.283 4.052 3.425 7.001 3.425 3.346 0 5.899-1.321 7.654-3.964v13.911h2.727v-35.201h-2.566l-.114 3.299c-1.758-2.506-4.34-3.758-7.746-3.758-2.857 0-5.161 1.15-6.91 3.449-1.749 2.3-2.624 5.405-2.624 9.316z" transform="translate(178.545 121.785)"/><path style="fill:#2d5faf;fill-opacity:1;fill-rule:nonzero;stroke:none" d="M0 0c-2.063 0-3.801-.756-5.213-2.269-1.414-1.512-2.273-3.544-2.578-6.095H7.082v.298c-.077 2.382-.757 4.323-2.04 5.82C3.759-.748 2.078 0 0 0m.505-23.375c-2.109 0-4.015.519-5.718 1.558-1.704 1.039-3.029 2.487-3.976 4.342-.948 1.857-1.421 3.939-1.421 6.246v.985c0 2.384.462 4.53 1.386 6.44C-8.3-1.895-7.013-.394-5.362.699-3.712 1.791-1.925 2.338 0 2.338c3.01 0 5.398-1.027 7.162-3.082C8.927-2.8 9.809-5.607 9.809-9.167v-1.535H-7.883v-.527c0-2.811.806-5.153 2.417-7.024 1.612-1.872 3.641-2.808 6.085-2.808 1.467 0 2.762.267 3.885.802 1.123.535 2.142 1.391 3.06 2.568l1.718-1.307c-2.016-2.919-4.943-4.377-8.777-4.377" transform="translate(212.05 132.556)"/><path style="fill:#2d5faf;fill-opacity:1;fill-rule:nonzero;stroke:none" d="m0 0 .092-4.24c.931 1.527 2.093 2.693 3.483 3.495C4.965.057 6.501.458 8.182.458c2.658 0 4.636-.749 5.935-2.246 1.299-1.497 1.955-3.743 1.971-6.737v-16.272h-2.727v16.294c-.015 2.215-.485 3.865-1.41 4.95-.924 1.085-2.402 1.627-4.434 1.627-1.696 0-3.197-.53-4.503-1.592C1.707-4.58.741-6.013.114-7.815v-16.982h-2.726V0z" transform="translate(229.81 134.436)"/><path style="fill:#2d5faf;fill-opacity:1;fill-rule:nonzero;stroke:none" d="M0 0v-6.348h5.133v-2.246H0v-16.542c0-1.377.248-2.401.744-3.074.497-.673 1.326-1.01 2.487-1.01.458 0 1.2.076 2.223.23l.114-2.227c-.717-.257-1.695-.386-2.932-.386-1.88 0-3.247.546-4.103 1.639-.855 1.092-1.283 2.7-1.283 4.823v16.547h-4.561v2.246h4.561V0Z" transform="translate(257.243 140.783)"/><path style="fill:#2d5faf;fill-opacity:1;fill-rule:nonzero;stroke:none" d="M271.131 109.639h-2.751v24.797h2.751zm-3.231 31.958c0 .516.168.953.504 1.309.336.357.794.536 1.375.536.58 0 1.043-.179 1.386-.536.344-.356.516-.793.516-1.309 0-.517-.172-.949-.516-1.298-.343-.35-.806-.524-1.386-.524-.581 0-1.039.174-1.375.524-.336.349-.504.781-.504 1.298"/><path style="fill:#2d5faf;fill-opacity:1;fill-rule:nonzero;stroke:none" d="M0 0v-6.348h5.133v-2.246H0v-16.542c0-1.377.248-2.401.744-3.074.497-.673 1.326-1.01 2.488-1.01.458 0 1.199.076 2.222.23l.114-2.227c-.717-.257-1.695-.386-2.932-.386-1.88 0-3.247.546-4.103 1.639-.855 1.092-1.283 2.7-1.283 4.823v16.547h-4.56v2.246h4.56V0z" transform="translate(282.841 140.783)"/><path style="fill:#2d5faf;fill-opacity:1;fill-rule:nonzero;stroke:none" d="M0 0c1.834 0 3.473.443 4.916 1.329 1.444.886 2.494 2.07 3.151 3.553v5.454H3.163c-2.735-.031-4.874-.531-6.417-1.501-1.543-.971-2.314-2.304-2.314-3.999 0-1.391.515-2.544 1.547-3.461C-2.99.459-1.649 0 0 0m8.617-1.971c-.275.78-.451 1.933-.527 3.461C7.128.237 5.901-.729 4.412-1.409A11.264 11.264 0 0 0-.32-2.429c-2.384 0-4.313.664-5.787 1.994C-7.582.894-8.318 2.574-8.318 4.607c0 2.414 1.004 4.323 3.013 5.729 2.009 1.405 4.809 2.108 8.399 2.108h4.973v2.819c0 1.772-.546 3.167-1.638 4.182-1.093 1.016-2.686 1.525-4.779 1.525-1.91 0-3.491-.49-4.744-1.467-1.253-.979-1.879-2.154-1.879-3.529l-2.75.022c0 1.972.917 3.679 2.75 5.122 1.833 1.444 4.087 2.166 6.761 2.166 2.765 0 4.946-.691 6.543-2.074 1.596-1.383 2.417-3.312 2.463-5.786V3.69c0-2.399.253-4.194.757-5.385v-.276z" transform="translate(300.694 111.61)"/><path style="fill:#2d5faf;fill-opacity:1;fill-rule:nonzero;stroke:none" d="M0 0c0-2.965.768-5.398 2.303-7.299 1.536-1.902 3.549-2.853 6.039-2.853 2.475 0 4.48.951 6.016 2.853 1.535 1.901 2.303 4.411 2.303 7.528v.527c0 1.894-.351 3.629-1.054 5.202-.703 1.573-1.688 2.792-2.957 3.655-1.268.864-2.719 1.295-4.354 1.295-2.444 0-4.438-.959-5.981-2.876C.771 6.115 0 3.605 0 .504Zm-2.75.756c0 2.384.462 4.53 1.387 6.44.924 1.909 2.23 3.395 3.918 4.457 1.688 1.062 3.602 1.593 5.741 1.593 3.3 0 5.974-1.157 8.021-3.472 2.047-2.315 3.071-5.382 3.071-9.201V0c0-2.399-.462-4.557-1.386-6.475-.925-1.917-2.227-3.395-3.908-4.434-1.68-1.039-3.598-1.558-5.752-1.558-3.285 0-5.955 1.157-8.009 3.472C-1.723-6.681-2.75-3.613-2.75.206z" transform="translate(165.62 73.037)"/><path style="fill:#2d5faf;fill-opacity:1;fill-rule:nonzero;stroke:none" d="M0 0c0 3.27-.635 5.795-1.902 7.574-1.269 1.78-3.056 2.67-5.363 2.67-1.757 0-3.247-.431-4.468-1.295-1.223-.863-2.148-2.127-2.774-3.792V-6.026c1.375-3.118 3.805-4.676 7.288-4.676 2.261 0 4.03.893 5.305 2.681C-.639-6.233 0-3.56 0 0m2.75-.48c0-3.867-.855-6.933-2.566-9.202-1.712-2.269-4.011-3.403-6.899-3.403-3.453 0-6.065 1.283-7.838 3.85l-.114-3.392h-2.567v35.201h2.727V8.571c1.742 2.704 4.323 4.057 7.746 4.057 2.934 0 5.252-1.119 6.955-3.358C1.898 7.032 2.75 3.919 2.75-.068Z" transform="translate(207.88 73.655)"/><path style="fill:#2d5faf;fill-opacity:1;fill-rule:nonzero;stroke:none" d="m0 0 3.942 4.445h2.453v-.274L.985-1.811h-1.97l-5.409 6.004v.252h2.453zm.413-28.578c1.909 0 3.51.538 4.801 1.615 1.291 1.077 1.99 2.472 2.097 4.183h2.635a7.76 7.76 0 0 0-1.421-4.137c-.871-1.245-2.028-2.219-3.471-2.922a10.48 10.48 0 0 0-4.641-1.054c-3.255 0-5.833 1.13-7.734 3.392-1.903 2.261-2.854 5.301-2.854 9.121v.825c0 2.445.428 4.607 1.283 6.486.856 1.879 2.082 3.33 3.679 4.354C-3.617-5.691-1.749-5.18.39-5.18c2.719 0 4.962-.81 6.726-2.429 1.765-1.62 2.708-3.751 2.83-6.394H7.311c-.123 1.94-.822 3.507-2.097 4.698C3.938-8.113 2.33-7.517.39-7.517c-2.475 0-4.397-.894-5.764-2.681-1.367-1.788-2.051-4.294-2.051-7.518v-.801c0-3.164.684-5.63 2.051-7.403 1.367-1.772 3.297-2.658 5.787-2.658" transform="translate(225.433 91.463)"/><path style="fill:#2d5faf;fill-opacity:1;fill-rule:nonzero;stroke:none" d="M0 0c1.834 0 3.473.443 4.916 1.329 1.444.886 2.494 2.07 3.151 3.553v5.454H3.163c-2.735-.031-4.874-.531-6.417-1.501-1.543-.971-2.314-2.304-2.314-3.999 0-1.391.515-2.544 1.547-3.461C-2.99.459-1.649 0 0 0m8.617-1.971c-.275.78-.451 1.933-.527 3.461C7.128.237 5.901-.73 4.412-1.409A11.264 11.264 0 0 0-.32-2.429c-2.384 0-4.313.664-5.787 1.993-1.475 1.329-2.211 3.01-2.211 5.042 0 2.414 1.004 4.324 3.013 5.73 2.009 1.405 4.809 2.108 8.399 2.108h4.973v2.819c0 1.772-.547 3.167-1.638 4.182-1.093 1.016-2.686 1.525-4.779 1.525-1.91 0-3.491-.49-4.744-1.467-1.253-.979-1.879-2.154-1.879-3.529l-2.75.022c0 1.972.917 3.679 2.75 5.122 1.833 1.444 4.087 2.166 6.761 2.166 2.765 0 4.946-.691 6.543-2.074 1.596-1.383 2.417-3.312 2.463-5.786V3.689c0-2.398.253-4.193.757-5.384v-.276z" transform="translate(247.892 63)"/><path style="fill:#2d5faf;fill-opacity:1;fill-rule:nonzero;stroke:none" d="m0 0 .092-4.24c.931 1.527 2.092 2.693 3.483 3.495C4.965.057 6.501.458 8.182.458c2.658 0 4.636-.749 5.935-2.246 1.299-1.497 1.955-3.743 1.971-6.737v-16.272h-2.727v16.294c-.015 2.215-.485 3.865-1.41 4.95-.924 1.085-2.402 1.627-4.434 1.627-1.696 0-3.197-.53-4.503-1.593C1.707-4.58.741-6.013.114-7.816v-16.981h-2.726V0z" transform="translate(268.61 85.825)"/><path style="fill:#2d5faf;fill-opacity:1;fill-rule:nonzero;stroke:none" d="M0 0c1.834 0 3.473.443 4.916 1.329 1.444.886 2.494 2.07 3.151 3.553v5.454H3.163c-2.735-.031-4.874-.531-6.417-1.501-1.543-.971-2.314-2.304-2.314-3.999 0-1.391.515-2.544 1.546-3.461C-2.99.459-1.65 0 0 0m8.617-1.971c-.275.78-.451 1.933-.527 3.461C7.128.237 5.901-.73 4.412-1.409A11.264 11.264 0 0 0-.32-2.429c-2.384 0-4.313.664-5.788 1.993-1.474 1.329-2.21 3.01-2.21 5.042 0 2.414 1.003 4.324 3.013 5.73 2.009 1.405 4.809 2.108 8.399 2.108h4.973v2.819c0 1.772-.547 3.167-1.638 4.182-1.093 1.016-2.686 1.525-4.779 1.525-1.91 0-3.491-.49-4.744-1.467-1.253-.979-1.879-2.154-1.879-3.529l-2.75.022c0 1.972.917 3.679 2.75 5.122 1.833 1.444 4.087 2.166 6.761 2.166 2.765 0 4.946-.691 6.543-2.074 1.596-1.383 2.417-3.312 2.463-5.786V3.689c0-2.398.253-4.193.757-5.384v-.276z" transform="translate(298.814 63)"/></g></svg>