<svg width="1080" height="1080" viewBox="0 0 1080 1080" fill="none" xmlns="http://www.w3.org/2000/svg">
<g clip-path="url(#clip0_85_95)">
<path d="M288 1080H117V909H288V1080ZM197.362 954.951V935.546H144.745V954.741H148.315L197.428 954.859C197.428 955.992 197.507 957.125 197.507 958.271C197.507 988.335 197.507 1018.39 197.507 1048.45V1051.65H217.453V986.266C217.453 977.624 222.722 972.354 231.351 972.341H257.37C258.292 972.341 259.215 972.249 260.005 972.209V954.82C259.294 954.82 258.78 954.701 258.266 954.701H199.378C198.702 954.747 198.029 954.83 197.362 954.951Z" fill="#E4002B"/>
<path d="M197 955.237C197.687 955.118 198.38 955.039 199.076 955H258.254C258.77 955 259.286 955.079 260 955.119V972.52C259.167 972.52 258.241 972.652 257.355 972.652H231.132C222.457 972.652 217.193 977.925 217.18 986.586V1052H197.159V1048.84C197.159 1018.75 197.159 988.674 197.159 958.599C197.159 957.452 197.159 956.318 197.079 955.185L197 955.237Z" fill="white"/>
<path d="M197 954.91L148.524 954.794H145V936H196.935V955L197 954.91Z" fill="white"/>
<path d="M454.453 961.697V968.276C454.453 978.566 449.69 986.487 441.863 990.645V991.316C451.216 995.263 457 1003.63 457 1014.92V1022.34C457 1039.37 445.272 1051 428.105 1051H372V933H425.545C442.725 933 454.453 944.592 454.453 961.697ZM392.404 950.579V982.947H424.868C426.09 983.01 427.312 982.817 428.454 982.381C429.597 981.946 430.634 981.277 431.499 980.419C432.365 979.561 433.039 978.532 433.478 977.399C433.917 976.266 434.111 975.054 434.049 973.842V960.684C434.132 959.334 433.925 957.982 433.442 956.716C432.959 955.451 432.21 954.302 431.245 953.346C430.281 952.389 429.123 951.647 427.847 951.168C426.572 950.688 425.208 950.483 423.846 950.566L392.404 950.579ZM392.404 1000.47V1033.53H426.407C427.767 1033.61 429.129 1033.4 430.403 1032.92C431.677 1032.44 432.834 1031.7 433.797 1030.74C434.76 1029.78 435.508 1028.64 435.99 1027.37C436.472 1026.11 436.679 1024.76 436.596 1023.41V1009.54C436.659 1008.33 436.464 1007.12 436.025 1005.98C435.586 1004.85 434.912 1003.82 434.047 1002.96C433.181 1002.1 432.144 1001.44 431.002 1001C429.859 1000.56 428.637 1000.37 427.415 1000.43L392.404 1000.47Z" fill="black"/>
<path d="M565.918 933H586V1022.35C586 1039.37 574.457 1051 557.561 1051H527.439C510.543 1051 499 1039.37 499 1022.35V933H519.134V1023.36C519.052 1024.71 519.256 1026.06 519.73 1027.32C520.205 1028.59 520.941 1029.73 521.889 1030.69C522.836 1031.65 523.975 1032.39 525.229 1032.87C526.483 1033.35 527.823 1033.56 529.162 1033.48H555.942C557.281 1033.56 558.622 1033.35 559.876 1032.87C561.13 1032.39 562.268 1031.65 563.216 1030.69C564.164 1029.73 564.899 1028.59 565.374 1027.32C565.849 1026.06 566.052 1024.71 565.97 1023.36L565.918 933Z" fill="black"/>
<path d="M655.85 950.538H622V933H710V950.538H676.15V1051H655.85V950.538Z" fill="black"/>
<path d="M829 1015.08V1022.34C829 1039.37 817.41 1051 800.445 1051H773.568C756.524 1051 745 1039.37 745 1022.34V961.664C745 944.634 756.59 933 773.568 933H800.445C817.41 933 829 944.634 829 961.664V968.916H808.836V960.664C808.918 959.315 808.714 957.963 808.237 956.699C807.76 955.434 807.022 954.286 806.07 953.329C805.118 952.373 803.975 951.63 802.716 951.149C801.457 950.669 800.111 950.463 798.767 950.543H775.246C773.901 950.461 772.553 950.666 771.293 951.145C770.032 951.625 768.887 952.367 767.934 953.324C766.981 954.281 766.241 955.43 765.764 956.695C765.286 957.961 765.082 959.313 765.164 960.664V1023.39C765.082 1024.74 765.286 1026.09 765.764 1027.36C766.241 1028.62 766.981 1029.77 767.934 1030.73C768.887 1031.69 770.032 1032.43 771.293 1032.91C772.553 1033.39 773.901 1033.59 775.246 1033.51H798.767C800.111 1033.59 801.457 1033.38 802.716 1032.9C803.975 1032.42 805.118 1031.68 806.07 1030.72C807.022 1029.77 807.76 1028.62 808.237 1027.35C808.714 1026.09 808.918 1024.74 808.836 1023.39V1015.12L829 1015.08Z" fill="black"/>
<path d="M960 1051H938.983L929.052 1021.16H887.148L877.218 1051H858L898.564 933H919.436L960 1051ZM908.494 958.905H907.824L892.849 1003.64H923.311L908.494 958.905Z" fill="black"/>
<path d="M399.466 381.785C391.186 381.795 383.14 384.544 376.579 389.605C370.018 394.665 365.308 401.755 363.181 409.773C214.137 402.135 85.0483 386.397 10.1172 366.272C9.09614 365.999 8.0315 365.931 6.98408 366.071C5.93666 366.21 4.92698 366.555 4.01268 367.086C2.16616 368.158 0.820263 369.921 0.271054 371.987C-0.278154 374.053 0.0143088 376.253 1.08412 378.103C2.15394 379.952 3.91347 381.301 5.97563 381.851C81.9224 402.227 212.251 418.19 362.482 425.854C363.711 432.912 366.926 439.47 371.749 444.759C376.572 450.048 382.803 453.847 389.708 455.708C396.613 457.57 403.905 457.417 410.726 455.267C417.547 453.117 423.613 449.061 428.211 443.574C432.809 438.088 435.747 431.4 436.679 424.297C437.612 417.194 436.5 409.973 433.475 403.482C430.45 396.991 425.637 391.5 419.603 387.656C413.568 383.813 406.564 381.776 399.413 381.785H399.466ZM420.926 419.406C420.94 422.481 420.278 425.522 418.987 428.312C416.957 432.783 413.461 436.422 409.08 438.626C404.698 440.829 399.696 441.463 394.905 440.422C390.114 439.381 385.823 436.728 382.746 432.904C379.669 429.081 377.992 424.317 377.993 419.406C377.987 416.355 378.639 413.339 379.906 410.565C381.67 406.665 384.557 403.381 388.197 401.135C391.837 398.889 396.063 397.783 400.334 397.959C404.605 398.135 408.726 399.585 412.17 402.123C415.613 404.661 418.221 408.171 419.66 412.204C420.496 414.513 420.925 416.95 420.926 419.406Z" fill="black"/>
<path d="M1079.72 474.985C1079.45 473.961 1078.98 473 1078.35 472.158C1077.71 471.316 1076.91 470.61 1075.99 470.079C1075.08 469.549 1074.07 469.205 1073.02 469.068C1071.97 468.93 1070.91 469.002 1069.89 469.279C966.305 497.121 781.75 512.323 623.596 516.391C621.314 506.093 615.285 497.018 606.688 490.937C598.091 484.856 587.541 482.205 577.099 483.503C566.657 484.8 557.072 489.952 550.216 497.953C543.359 505.954 539.723 516.23 540.017 526.775C540.31 537.319 544.513 547.375 551.805 554.98C559.097 562.585 568.953 567.193 579.451 567.904C589.949 568.614 600.334 565.377 608.58 558.825C616.825 552.272 622.339 542.873 624.044 532.464C783.239 528.396 969.203 513.036 1074.05 484.838C1075.07 484.567 1076.03 484.096 1076.87 483.453C1077.7 482.811 1078.41 482.008 1078.93 481.093C1079.46 480.177 1079.8 479.166 1079.93 478.118C1080.07 477.07 1080 476.005 1079.72 474.985ZM607.471 532.861C605.901 538.283 602.635 543.056 598.153 546.476C593.671 549.895 588.212 551.78 582.581 551.853C576.95 551.925 571.444 550.181 566.876 546.878C562.309 543.575 558.921 538.888 557.212 533.508C556.354 530.954 555.91 528.278 555.895 525.583C555.817 522.074 556.438 518.585 557.724 515.32C559.009 512.055 560.932 509.081 563.379 506.571C565.827 504.062 568.75 502.068 571.977 500.707C575.204 499.345 578.67 498.644 582.171 498.644C585.671 498.644 589.137 499.345 592.364 500.707C595.591 502.068 598.514 504.062 600.962 506.571C603.409 509.081 605.332 512.055 606.618 515.32C607.903 518.585 608.524 522.074 608.446 525.583C608.471 528.043 608.143 530.494 607.471 532.861Z" fill="black"/>
<path d="M1079.72 679.941C1079.45 678.921 1078.98 677.965 1078.34 677.128C1077.7 676.291 1076.9 675.589 1075.98 675.064C1075.07 674.538 1074.06 674.198 1073.02 674.064C1071.97 673.931 1070.91 674.006 1069.89 674.285C946.756 707.325 709.003 722.382 540.083 722.382C510.409 722.382 478.745 721.907 446.489 720.971C444.897 711.849 439.994 703.638 432.723 697.913C425.452 692.188 416.325 689.353 407.094 689.953C397.862 690.553 389.178 694.545 382.707 701.163C376.237 707.781 372.436 716.558 372.035 725.809C371.634 735.061 374.662 744.134 380.535 751.288C386.409 758.442 394.716 763.172 403.861 764.57C413.005 765.967 422.344 763.934 430.083 758.861C437.821 753.788 443.416 746.032 445.791 737.083C478.271 738.006 510.185 738.493 540.083 738.493C709.991 738.493 949.509 723.265 1074.06 689.816C1075.08 689.541 1076.03 689.067 1076.87 688.422C1077.71 687.776 1078.41 686.972 1078.93 686.054C1079.46 685.137 1079.8 684.125 1079.93 683.076C1080.07 682.027 1080 680.961 1079.72 679.941ZM431 727.405C431.004 730.557 430.301 733.671 428.945 736.516C427.146 740.375 424.238 743.609 420.593 745.805C416.947 748.001 412.731 749.059 408.482 748.844C404.233 748.629 400.145 747.15 396.739 744.597C393.334 742.044 390.767 738.533 389.366 734.512C387.613 729.626 387.721 724.266 389.669 719.455C391.287 715.389 394.111 711.917 397.759 709.504C401.407 707.092 405.705 705.855 410.076 705.96C414.447 706.065 418.681 707.506 422.21 710.091C425.738 712.675 428.392 716.279 429.814 720.417C430.606 722.68 431.007 725.061 431 727.458V727.405Z" fill="black"/>
<path d="M214.424 620C211.072 620.004 207.721 619.837 204.386 619.499C120.589 611.024 53.8068 600.215 5.92647 587.377C3.91141 586.784 2.20807 585.428 1.1803 583.597C0.152539 581.767 -0.118168 579.607 0.426039 577.58C0.970245 575.553 2.2862 573.818 4.09279 572.748C5.89937 571.677 8.05334 571.355 10.0945 571.849C57.1439 584.464 123.055 595.101 206.008 603.484C219.506 604.866 233.137 602.93 245.715 597.844C258.293 592.757 269.435 584.675 278.172 574.301L318.574 526.203C184.799 517.728 74.2384 503.11 5.96603 484.815C3.90381 484.262 2.14562 482.914 1.07824 481.066C0.0108665 479.219 -0.278259 477.023 0.274465 474.962C0.827189 472.901 2.17648 471.144 4.02553 470.077C5.87457 469.011 8.0719 468.722 10.1341 469.274C80.0421 488.018 195.601 502.873 335.457 511.111C336.94 511.206 338.369 511.709 339.584 512.565C340.799 513.421 341.753 514.596 342.342 515.96C342.93 517.325 343.13 518.825 342.918 520.295C342.706 521.766 342.091 523.149 341.142 524.292L290.492 584.609C281.172 595.706 269.531 604.626 256.388 610.741C243.245 616.855 228.921 620.016 214.424 620Z" fill="black"/>
<path d="M606.261 324C591.782 324.02 577.475 320.858 564.353 314.739C551.232 308.62 539.616 299.692 530.328 288.588L410.065 145.323C408.697 143.688 408.035 141.577 408.222 139.453C408.41 137.33 409.433 135.368 411.066 133.998L447.505 103.432L281.674 23.1015L332.037 200.304L364.063 173.439C364.871 172.761 365.806 172.249 366.813 171.932C367.819 171.615 368.879 171.499 369.93 171.592C370.981 171.684 372.004 171.982 372.94 172.47C373.876 172.957 374.707 173.625 375.385 174.433C376.064 175.242 376.576 176.176 376.893 177.182C377.21 178.188 377.326 179.247 377.233 180.298C377.141 181.349 376.842 182.372 376.355 183.308C375.867 184.243 375.2 185.074 374.391 185.752L332.867 220.584C331.841 221.446 330.614 222.037 329.3 222.305C327.986 222.572 326.627 222.506 325.344 222.113C324.062 221.72 322.899 221.013 321.96 220.056C321.022 219.099 320.338 217.922 319.97 216.633L261.308 10.2354C260.883 8.74415 260.898 7.16175 261.353 5.67918C261.807 4.1966 262.681 2.87721 263.869 1.88027C265.058 0.883335 266.509 0.251453 268.048 0.0608938C269.588 -0.129666 271.15 0.129247 272.545 0.806372L465.685 94.3853C466.891 94.9702 467.931 95.8474 468.712 96.9371C469.492 98.0268 469.987 99.2943 470.152 100.624C470.317 101.954 470.147 103.304 469.656 104.551C469.166 105.799 468.371 106.903 467.344 107.765L427.547 141.148L542.658 278.251C550.56 287.721 560.483 295.301 571.699 300.435C582.915 305.569 595.139 308.127 607.473 307.921C730.858 306.182 845.442 299.624 930.123 289.484C1048.21 275.275 1062.35 259.906 1063.88 257.431C1062.31 254.889 1047.55 238.836 921.744 224.39C831.571 214.039 710.834 207.718 581.784 206.598C579.653 206.598 577.609 205.752 576.102 204.245C574.595 202.739 573.748 200.696 573.748 198.565C573.748 196.435 574.595 194.391 576.102 192.885C577.609 191.378 579.653 190.532 581.784 190.532H581.863C715.273 191.691 839.159 198.341 930.689 209.258C975.875 214.658 1011.34 220.873 1036.08 227.695C1066.46 236.097 1080 245.262 1080 257.404C1080 269.256 1067.18 278.198 1038.44 286.442C1015.13 293.119 981.658 299.216 938.949 304.549C852.991 315.295 735.31 322.209 607.618 324H606.261Z" fill="black"/>
<path d="M581.558 431C567.256 431.011 553.123 427.904 540.138 421.896C527.152 415.888 515.625 407.122 506.355 396.205L444.655 323.842C323.875 321.412 213.436 314.321 133.386 303.837C92.9723 298.555 61.358 292.546 39.3861 286.023C12.1451 277.929 0 269.134 0 257.54C0 243.279 18.3231 233.085 61.2526 223.432C96.384 215.509 147.731 208.484 209.774 203.03C210.826 202.939 211.885 203.055 212.892 203.374C213.899 203.692 214.833 204.207 215.641 204.887C216.45 205.568 217.117 206.401 217.604 207.34C218.091 208.279 218.389 209.305 218.481 210.359C218.573 211.413 218.456 212.476 218.138 213.485C217.821 214.494 217.308 215.431 216.629 216.241C215.95 217.052 215.118 217.72 214.182 218.209C213.245 218.697 212.222 218.996 211.17 219.088C65.5338 231.896 20.1673 249.604 16.2155 257.514C17.6381 259.864 30.9161 274.68 142.238 288.717C221.866 298.753 330.606 305.527 448.606 307.798C449.741 307.826 450.857 308.091 451.882 308.578C452.908 309.065 453.82 309.762 454.56 310.624L518.606 385.734C526.496 395.027 536.336 402.459 547.423 407.499C558.51 412.539 570.57 415.063 582.743 414.89C733.122 412.777 950.931 398.978 1069.88 366.996C1071.94 366.442 1074.13 366.732 1075.98 367.8C1077.83 368.869 1079.17 370.629 1079.73 372.694C1080.28 374.758 1079.99 376.958 1078.92 378.809C1077.86 380.66 1076.1 382.011 1074.04 382.564C953.592 414.93 734.241 428.887 582.941 431H581.558Z" fill="black"/>
<path d="M859.644 570.026C849.17 570.032 839.07 573.926 831.291 580.957C823.512 587.989 818.605 597.659 817.519 608.103C728.186 615.362 628.967 619.48 539.91 619.48C485.028 619.48 424.38 617.87 364.575 614.848C363.333 614.781 362.092 615.004 360.95 615.498C359.808 615.993 358.796 616.746 357.993 617.698L306.494 679.242C297.847 689.524 286.853 697.561 274.445 702.671C262.037 707.782 248.582 709.813 235.223 708.595C140.111 699.989 62.3493 688.071 10.3898 674.081C9.35747 673.763 8.27167 673.657 7.19744 673.769C6.12321 673.881 5.08261 674.21 4.13791 674.735C3.19321 675.26 2.36384 675.97 1.6994 676.824C1.03495 677.677 0.549102 678.657 0.270922 679.703C-0.00725737 680.749 -0.0720516 681.841 0.0804161 682.913C0.232884 683.985 0.599481 685.015 1.15827 685.942C1.71706 686.869 2.45656 687.673 3.33252 688.306C4.20848 688.94 5.20289 689.39 6.25626 689.629C59.0845 703.83 137.781 715.933 233.84 724.604C236.855 724.881 239.843 725 242.792 725C257.281 725.015 271.598 721.849 284.736 715.724C297.874 709.6 309.515 700.666 318.842 689.549L367.787 631.081C426.579 634.025 486.016 635.569 539.936 635.569C629.454 635.569 729.199 631.398 819.019 624.113C821.188 631.694 825.421 638.519 831.245 643.821C837.068 649.123 844.25 652.693 851.985 654.129C859.72 655.565 867.701 654.811 875.032 651.951C882.363 649.091 888.754 644.239 893.486 637.939C898.219 631.639 901.106 624.142 901.824 616.288C902.541 608.434 901.06 600.535 897.548 593.478C894.036 586.422 888.63 580.486 881.94 576.339C875.249 572.192 867.537 569.996 859.671 570L859.644 570.026ZM885.328 618.015C883.972 624.379 880.312 630.013 875.056 633.831C869.799 637.648 863.318 639.378 856.865 638.685C850.411 637.993 844.442 634.928 840.11 630.082C835.778 625.236 833.39 618.953 833.408 612.445C833.413 610.528 833.62 608.617 834.027 606.744C835.229 601.314 838.116 596.405 842.274 592.723C846.431 589.04 851.646 586.773 857.169 586.247C862.692 585.721 868.239 586.962 873.014 589.794C877.789 592.625 881.547 596.9 883.748 602.006C885.935 607.044 886.488 612.645 885.328 618.015Z" fill="black"/>
<path d="M1042.5 549C1035.08 549 1027.83 551.2 1021.66 555.321C1015.5 559.442 1010.69 565.299 1007.85 572.152C1005.02 579.005 1004.27 586.546 1005.72 593.821C1007.17 601.095 1010.74 607.777 1015.99 613.021C1021.23 618.265 1027.92 621.836 1035.19 623.281C1042.47 624.726 1050.01 623.982 1056.86 621.142C1063.71 618.301 1069.57 613.493 1073.69 607.324C1077.81 601.156 1080 593.904 1080 586.487C1079.99 576.546 1076.03 567.015 1069 559.987C1061.97 552.958 1052.44 549.007 1042.5 549ZM1042.5 607.93C1038.26 607.933 1034.11 606.678 1030.58 604.323C1027.05 601.968 1024.3 598.62 1022.68 594.702C1021.05 590.784 1020.63 586.472 1021.45 582.311C1022.28 578.151 1024.32 574.329 1027.32 571.329C1030.32 568.328 1034.14 566.285 1038.3 565.456C1042.46 564.628 1046.77 565.052 1050.69 566.674C1054.61 568.297 1057.96 571.045 1060.32 574.572C1062.67 578.099 1063.93 582.245 1063.93 586.487C1063.93 592.171 1061.67 597.621 1057.65 601.641C1053.63 605.662 1048.18 607.923 1042.5 607.93Z" fill="black"/>
</g>
<defs>
<clipPath id="clip0_85_95">
<rect width="1080" height="1080" fill="white"/>
</clipPath>
</defs>
</svg>
